<svg xmlns="http://www.w3.org/2000/svg" xmlns:xlink="http://www.w3.org/1999/xlink" width="2000" zoomAndPan="magnify" viewBox="0 0 1500 1499.999933" height="2000" preserveAspectRatio="xMidYMid meet" version="1.0"><defs><g/><clipPath id="30c992ac88"><path d="M 641 688.902344 L 880 688.902344 L 880 925.902344 L 641 925.902344 Z M 641 688.902344 " clip-rule="nonzero"/></clipPath></defs><g fill="#545454" fill-opacity="1"><g transform="translate(106.892602, 637.476722)"><g><path d="M 99.765625 1.3125 C 83.191406 1.3125 67.4375 -1.628906 52.5 -7.515625 C 37.5625 -13.410156 26.054688 -21.046875 17.984375 -30.421875 L 23.875 -38.265625 C 31.507812 -29.546875 42.140625 -22.40625 55.765625 -16.84375 C 69.398438 -11.28125 83.957031 -8.5 99.4375 -8.5 C 122.332031 -8.5 139.613281 -13.023438 151.28125 -22.078125 C 162.945312 -31.128906 168.78125 -42.742188 168.78125 -56.921875 C 168.78125 -67.816406 165.726562 -76.585938 159.625 -83.234375 C 153.519531 -89.890625 145.992188 -94.90625 137.046875 -98.28125 C 128.109375 -101.664062 115.898438 -105.210938 100.421875 -108.921875 C 83.847656 -113.066406 70.546875 -117.101562 60.515625 -121.03125 C 50.484375 -124.957031 41.976562 -130.953125 35 -139.015625 C 28.019531 -147.085938 24.53125 -157.882812 24.53125 -171.40625 C 24.53125 -182.09375 27.363281 -191.90625 33.03125 -200.84375 C 38.707031 -209.78125 47.378906 -216.921875 59.046875 -222.265625 C 70.710938 -227.609375 85.269531 -230.28125 102.71875 -230.28125 C 115.144531 -230.28125 127.410156 -228.425781 139.515625 -224.71875 C 151.617188 -221.007812 161.921875 -215.882812 170.421875 -209.34375 L 165.515625 -200.515625 C 156.578125 -207.054688 146.597656 -212.015625 135.578125 -215.390625 C 124.566406 -218.773438 113.722656 -220.46875 103.046875 -220.46875 C 80.796875 -220.46875 63.945312 -215.832031 52.5 -206.5625 C 41.050781 -197.300781 35.328125 -185.582031 35.328125 -171.40625 C 35.328125 -160.28125 38.429688 -151.390625 44.640625 -144.734375 C 50.859375 -138.085938 58.492188 -133.019531 67.546875 -129.53125 C 76.597656 -126.039062 88.753906 -122.441406 104.015625 -118.734375 C 120.585938 -114.597656 133.890625 -110.617188 143.921875 -106.796875 C 153.953125 -102.984375 162.398438 -97.097656 169.265625 -89.140625 C 176.140625 -81.179688 179.578125 -70.550781 179.578125 -57.25 C 179.578125 -46.5625 176.6875 -36.742188 170.90625 -27.796875 C 165.132812 -18.859375 156.25 -11.769531 144.25 -6.53125 C 132.257812 -1.300781 117.429688 1.3125 99.765625 1.3125 Z M 99.765625 1.3125 "/></g></g></g><g fill="#545454" fill-opacity="1"><g transform="translate(304.468167, 637.476722)"><g><path d="M 196.59375 -10.140625 L 196.59375 0 L 41.875 0 L 41.875 -228.96875 L 192.015625 -228.96875 L 192.015625 -218.84375 L 52.984375 -218.84375 L 52.984375 -121.359375 L 177.296875 -121.359375 L 177.296875 -111.21875 L 52.984375 -111.21875 L 52.984375 -10.140625 Z M 196.59375 -10.140625 "/></g></g></g><g fill="#545454" fill-opacity="1"><g transform="translate(522.978871, 637.476722)"><g><path d="M 224.71875 -228.96875 L 224.71875 0 L 215.5625 0 L 52.984375 -208.703125 L 52.984375 0 L 41.875 0 L 41.875 -228.96875 L 51.03125 -228.96875 L 213.609375 -20.28125 L 213.609375 -228.96875 Z M 224.71875 -228.96875 "/></g></g></g><g fill="#545454" fill-opacity="1"><g transform="translate(789.5751, 637.476722)"><g><path d="M 41.875 -228.96875 L 52.984375 -228.96875 L 52.984375 0 L 41.875 0 Z M 41.875 -228.96875 "/></g></g></g><g fill="#545454" fill-opacity="1"><g transform="translate(884.437549, 637.476722)"><g><path d="M 136.734375 1.3125 C 114.484375 1.3125 94.363281 -3.703125 76.375 -13.734375 C 58.382812 -23.765625 44.265625 -37.613281 34.015625 -55.28125 C 23.765625 -72.945312 18.640625 -92.679688 18.640625 -114.484375 C 18.640625 -136.296875 23.765625 -156.03125 34.015625 -173.6875 C 44.265625 -191.351562 58.382812 -205.203125 76.375 -215.234375 C 94.363281 -225.265625 114.484375 -230.28125 136.734375 -230.28125 C 158.972656 -230.28125 179.140625 -225.265625 197.234375 -215.234375 C 215.335938 -205.203125 229.515625 -191.351562 239.765625 -173.6875 C 250.015625 -156.03125 255.140625 -136.296875 255.140625 -114.484375 C 255.140625 -92.679688 250.015625 -72.945312 239.765625 -55.28125 C 229.515625 -37.613281 215.335938 -23.765625 197.234375 -13.734375 C 179.140625 -3.703125 158.972656 1.3125 136.734375 1.3125 Z M 136.734375 -8.828125 C 156.796875 -8.828125 175.003906 -13.40625 191.359375 -22.5625 C 207.710938 -31.726562 220.578125 -44.378906 229.953125 -60.515625 C 239.335938 -76.648438 244.03125 -94.640625 244.03125 -114.484375 C 244.03125 -134.328125 239.335938 -152.316406 229.953125 -168.453125 C 220.578125 -184.597656 207.710938 -197.25 191.359375 -206.40625 C 175.003906 -215.5625 156.796875 -220.140625 136.734375 -220.140625 C 116.671875 -220.140625 98.515625 -215.5625 82.265625 -206.40625 C 66.015625 -197.25 53.203125 -184.597656 43.828125 -168.453125 C 34.453125 -152.316406 29.765625 -134.328125 29.765625 -114.484375 C 29.765625 -94.640625 34.453125 -76.648438 43.828125 -60.515625 C 53.203125 -44.378906 66.015625 -31.726562 82.265625 -22.5625 C 98.515625 -13.40625 116.671875 -8.828125 136.734375 -8.828125 Z M 136.734375 -8.828125 "/></g></g></g><g fill="#545454" fill-opacity="1"><g transform="translate(1158.230186, 637.476722)"><g><path d="M 202.8125 0 L 146.21875 -78.828125 C 138.800781 -77.523438 130.515625 -76.875 121.359375 -76.875 L 52.984375 -76.875 L 52.984375 0 L 41.875 0 L 41.875 -228.96875 L 121.359375 -228.96875 C 149.921875 -228.96875 172.21875 -222.257812 188.25 -208.84375 C 204.28125 -195.4375 212.296875 -176.851562 212.296875 -153.09375 C 212.296875 -134.769531 207.550781 -119.445312 198.0625 -107.125 C 188.570312 -94.800781 175 -86.242188 157.34375 -81.453125 L 215.890625 0 Z M 122.015625 -87.015625 C 147.523438 -87.015625 167.148438 -92.738281 180.890625 -104.1875 C 194.628906 -115.632812 201.5 -131.9375 201.5 -153.09375 C 201.5 -174.019531 194.628906 -190.207031 180.890625 -201.65625 C 167.148438 -213.113281 147.523438 -218.84375 122.015625 -218.84375 L 52.984375 -218.84375 L 52.984375 -87.015625 Z M 122.015625 -87.015625 "/></g></g></g><g fill="#545454" fill-opacity="1"><g transform="translate(111.298851, 921.726697)"><g><path d="M 181.875 -118.09375 L 230.28125 -118.09375 L 230.28125 -25.1875 C 217.851562 -15.8125 203.460938 -8.613281 187.109375 -3.59375 C 170.753906 1.414062 154.289062 3.921875 137.71875 3.921875 C 113.945312 3.921875 92.570312 -1.144531 73.59375 -11.28125 C 54.625 -21.425781 39.738281 -35.492188 28.9375 -53.484375 C 18.144531 -71.472656 12.75 -91.804688 12.75 -114.484375 C 12.75 -137.160156 18.144531 -157.492188 28.9375 -175.484375 C 39.738281 -193.484375 54.734375 -207.550781 73.921875 -217.6875 C 93.117188 -227.832031 114.707031 -232.90625 138.6875 -232.90625 C 158.75 -232.90625 176.957031 -229.523438 193.3125 -222.765625 C 209.675781 -216.003906 223.414062 -206.191406 234.53125 -193.328125 L 200.515625 -161.921875 C 184.160156 -179.148438 164.425781 -187.765625 141.3125 -187.765625 C 126.695312 -187.765625 113.71875 -184.707031 102.375 -178.59375 C 91.039062 -172.488281 82.210938 -163.875 75.890625 -152.75 C 69.566406 -141.632812 66.40625 -128.878906 66.40625 -114.484375 C 66.40625 -100.304688 69.566406 -87.65625 75.890625 -76.53125 C 82.210938 -65.414062 90.988281 -56.75 102.21875 -50.53125 C 113.445312 -44.320312 126.257812 -41.21875 140.65625 -41.21875 C 155.914062 -41.21875 169.65625 -44.488281 181.875 -51.03125 Z M 181.875 -118.09375 "/></g></g></g><g fill="#545454" fill-opacity="1"><g transform="translate(363.502147, 921.726697)"><g><path d="M 128.875 3.921875 C 96.164062 3.921875 70.707031 -5.125 52.5 -23.21875 C 34.289062 -41.320312 25.1875 -67.164062 25.1875 -100.75 L 25.1875 -228.96875 L 78.171875 -228.96875 L 78.171875 -102.71875 C 78.171875 -61.71875 95.179688 -41.21875 129.203125 -41.21875 C 145.773438 -41.21875 158.421875 -46.175781 167.140625 -56.09375 C 175.867188 -66.019531 180.234375 -81.5625 180.234375 -102.71875 L 180.234375 -228.96875 L 232.578125 -228.96875 L 232.578125 -100.75 C 232.578125 -67.164062 223.472656 -41.320312 205.265625 -23.21875 C 187.054688 -5.125 161.59375 3.921875 128.875 3.921875 Z M 128.875 3.921875 "/></g></g></g><g fill="#545454" fill-opacity="1"><g transform="translate(621.27537, 921.726697)"><g/></g></g><g fill="#545454" fill-opacity="1"><g transform="translate(713.84804, 921.726697)"><g/></g></g><g fill="#545454" fill-opacity="1"><g transform="translate(806.420709, 921.726697)"><g/></g></g><g fill="#545454" fill-opacity="1"><g transform="translate(898.998006, 921.726697)"><g><path d="M 27.15625 -228.96875 L 131.171875 -228.96875 C 156.035156 -228.96875 178.003906 -224.222656 197.078125 -214.734375 C 216.160156 -205.253906 230.988281 -191.898438 241.5625 -174.671875 C 252.144531 -157.441406 257.4375 -137.378906 257.4375 -114.484375 C 257.4375 -91.585938 252.144531 -71.523438 241.5625 -54.296875 C 230.988281 -37.066406 216.160156 -23.707031 197.078125 -14.21875 C 178.003906 -4.738281 156.035156 0 131.171875 0 L 27.15625 0 Z M 128.546875 -43.5 C 151.453125 -43.5 169.71875 -49.878906 183.34375 -62.640625 C 196.976562 -75.398438 203.796875 -92.679688 203.796875 -114.484375 C 203.796875 -136.296875 196.976562 -153.578125 183.34375 -166.328125 C 169.71875 -179.085938 151.453125 -185.46875 128.546875 -185.46875 L 80.140625 -185.46875 L 80.140625 -43.5 Z M 128.546875 -43.5 "/></g></g></g><g fill="#545454" fill-opacity="1"><g transform="translate(1169.19242, 921.726697)"><g><path d="M 204.4375 -42.53125 L 204.4375 0 L 27.15625 0 L 27.15625 -228.96875 L 200.1875 -228.96875 L 200.1875 -186.453125 L 79.8125 -186.453125 L 79.8125 -136.734375 L 186.125 -136.734375 L 186.125 -95.515625 L 79.8125 -95.515625 L 79.8125 -42.53125 Z M 204.4375 -42.53125 "/></g></g></g><g clip-path="url(#30c992ac88)"><path fill="#ff6b35" d="M 760.503906 688.921875 C 758.671875 688.921875 756.839844 688.964844 755.011719 689.046875 C 753.179688 689.132812 751.351562 689.261719 749.527344 689.429688 C 747.703125 689.597656 745.886719 689.808594 744.070312 690.0625 C 742.253906 690.316406 740.449219 690.609375 738.648438 690.945312 C 736.84375 691.28125 735.054688 691.65625 733.269531 692.078125 C 731.484375 692.496094 729.710938 692.953125 727.949219 693.453125 C 726.1875 693.953125 724.4375 694.492188 722.699219 695.074219 C 720.960938 695.652344 719.238281 696.273438 717.527344 696.933594 C 715.820312 697.59375 714.125 698.292969 712.449219 699.03125 C 710.769531 699.765625 709.113281 700.542969 707.46875 701.355469 C 705.828125 702.171875 704.207031 703.019531 702.605469 703.910156 C 701 704.796875 699.421875 705.722656 697.859375 706.683594 C 696.300781 707.644531 694.765625 708.640625 693.25 709.671875 C 691.734375 710.703125 690.246094 711.769531 688.78125 712.871094 C 687.316406 713.972656 685.878906 715.105469 684.464844 716.269531 C 683.050781 717.4375 681.667969 718.636719 680.308594 719.867188 C 678.949219 721.097656 677.621094 722.355469 676.320312 723.648438 C 675.023438 724.941406 673.753906 726.261719 672.515625 727.609375 C 671.273438 728.960938 670.066406 730.335938 668.890625 731.742188 C 667.714844 733.148438 666.574219 734.578125 665.464844 736.035156 C 664.351562 737.496094 663.277344 738.976562 662.234375 740.484375 C 661.195312 741.992188 660.1875 743.523438 659.214844 745.074219 C 658.246094 746.628906 657.308594 748.203125 656.410156 749.800781 C 655.511719 751.398438 654.652344 753.011719 653.824219 754.648438 C 653 756.285156 652.214844 757.941406 651.464844 759.613281 C 650.71875 761.285156 650.007812 762.972656 649.335938 764.679688 C 648.667969 766.382812 648.035156 768.101562 647.445312 769.835938 C 646.851562 771.570312 646.300781 773.316406 645.789062 775.078125 C 645.277344 776.835938 644.808594 778.605469 644.378906 780.386719 C 643.945312 782.167969 643.558594 783.957031 643.210938 785.757812 C 642.863281 787.554688 642.558594 789.363281 642.292969 791.175781 C 642.027344 792.988281 641.804688 794.804688 641.625 796.628906 C 641.441406 798.453125 641.304688 800.277344 641.207031 802.109375 C 641.109375 803.9375 641.054688 805.769531 641.042969 807.601562 C 641.03125 809.433594 641.058594 811.265625 641.128906 813.097656 C 641.203125 814.925781 641.316406 816.753906 641.472656 818.582031 C 641.625 820.40625 641.824219 822.226562 642.0625 824.042969 C 642.300781 825.859375 642.582031 827.671875 642.90625 829.472656 C 643.226562 831.277344 643.59375 833.074219 643.996094 834.859375 C 644.402344 836.644531 644.847656 838.421875 645.335938 840.1875 C 645.820312 841.957031 646.347656 843.710938 646.917969 845.453125 C 647.484375 847.195312 648.089844 848.921875 648.738281 850.636719 C 649.386719 852.351562 650.070312 854.046875 650.796875 855.730469 C 651.519531 857.414062 652.285156 859.078125 653.085938 860.726562 C 653.886719 862.375 654.726562 864.003906 655.601562 865.609375 C 656.480469 867.21875 657.394531 868.808594 658.34375 870.375 C 659.292969 871.941406 660.277344 873.484375 661.296875 875.007812 C 662.316406 876.53125 663.375 878.027344 664.460938 879.5 C 665.550781 880.972656 666.675781 882.421875 667.832031 883.839844 C 668.988281 885.261719 670.175781 886.65625 671.394531 888.023438 C 672.613281 889.390625 673.867188 890.730469 675.148438 892.039062 C 676.429688 893.347656 677.742188 894.625 679.082031 895.875 C 680.421875 897.125 681.789062 898.34375 683.1875 899.527344 C 684.582031 900.714844 686.003906 901.867188 687.457031 902.988281 C 688.90625 904.109375 690.378906 905.195312 691.878906 906.25 C 693.378906 907.300781 694.902344 908.320312 696.449219 909.300781 C 697.992188 910.285156 699.5625 911.230469 701.152344 912.140625 C 702.742188 913.054688 704.351562 913.925781 705.980469 914.761719 C 707.613281 915.601562 709.261719 916.398438 710.925781 917.160156 C 712.59375 917.921875 714.277344 918.640625 715.976562 919.324219 C 717.675781 920.007812 719.390625 920.652344 721.121094 921.257812 C 722.851562 921.863281 724.59375 922.425781 726.347656 922.949219 C 728.105469 923.476562 729.871094 923.957031 731.648438 924.402344 C 733.425781 924.84375 735.214844 925.246094 737.011719 925.609375 L 737.011719 828.53125 C 737.011719 827.761719 737.046875 826.992188 737.121094 826.226562 C 737.199219 825.460938 737.3125 824.703125 737.460938 823.945312 C 737.613281 823.191406 737.796875 822.445312 738.019531 821.710938 C 738.246094 820.972656 738.503906 820.25 738.796875 819.539062 C 739.09375 818.828125 739.421875 818.132812 739.785156 817.457031 C 740.148438 816.777344 740.542969 816.117188 740.96875 815.476562 C 741.398438 814.835938 741.855469 814.21875 742.34375 813.625 C 742.832031 813.03125 743.347656 812.460938 743.890625 811.917969 C 744.433594 811.375 745.003906 810.855469 745.601562 810.367188 C 746.195312 809.878906 746.8125 809.421875 747.453125 808.996094 C 748.089844 808.566406 748.75 808.171875 749.429688 807.808594 C 750.109375 807.449219 750.800781 807.117188 751.511719 806.824219 C 752.222656 806.53125 752.949219 806.269531 753.683594 806.046875 C 754.421875 805.824219 755.167969 805.636719 755.921875 805.488281 C 756.675781 805.335938 757.4375 805.222656 758.203125 805.148438 C 758.96875 805.074219 759.734375 805.035156 760.503906 805.035156 C 761.273438 805.035156 762.042969 805.074219 762.808594 805.148438 C 763.574219 805.222656 764.332031 805.335938 765.089844 805.488281 C 765.84375 805.636719 766.589844 805.824219 767.324219 806.046875 C 768.0625 806.269531 768.785156 806.53125 769.496094 806.824219 C 770.207031 807.117188 770.902344 807.449219 771.578125 807.808594 C 772.257812 808.171875 772.917969 808.566406 773.558594 808.996094 C 774.199219 809.421875 774.816406 809.878906 775.410156 810.367188 C 776.003906 810.855469 776.574219 811.375 777.117188 811.917969 C 777.660156 812.460938 778.179688 813.03125 778.667969 813.625 C 779.15625 814.21875 779.613281 814.835938 780.039062 815.476562 C 780.46875 816.117188 780.863281 816.777344 781.226562 817.457031 C 781.585938 818.132812 781.917969 818.828125 782.210938 819.539062 C 782.503906 820.25 782.765625 820.972656 782.988281 821.710938 C 783.210938 822.445312 783.398438 823.191406 783.546875 823.945312 C 783.699219 824.703125 783.8125 825.460938 783.886719 826.226562 C 783.960938 826.992188 784 827.761719 784 828.53125 L 784 925.609375 C 785.796875 925.246094 787.582031 924.84375 789.359375 924.402344 C 791.136719 923.957031 792.90625 923.476562 794.660156 922.949219 C 796.417969 922.425781 798.160156 921.863281 799.886719 921.257812 C 801.617188 920.652344 803.332031 920.007812 805.03125 919.324219 C 806.734375 918.640625 808.414062 917.921875 810.082031 917.160156 C 811.75 916.398438 813.398438 915.601562 815.027344 914.761719 C 816.65625 913.925781 818.269531 913.054688 819.859375 912.140625 C 821.449219 911.230469 823.015625 910.285156 824.5625 909.300781 C 826.109375 908.320312 827.632812 907.300781 829.128906 906.25 C 830.628906 905.195312 832.105469 904.109375 833.554688 902.988281 C 835.003906 901.867188 836.425781 900.714844 837.824219 899.527344 C 839.21875 898.34375 840.589844 897.125 841.929688 895.875 C 843.269531 894.625 844.578125 893.347656 845.863281 892.039062 C 847.144531 890.730469 848.394531 889.390625 849.613281 888.023438 C 850.835938 886.65625 852.023438 885.261719 853.179688 883.839844 C 854.335938 882.421875 855.457031 880.972656 856.546875 879.5 C 857.636719 878.027344 858.691406 876.53125 859.710938 875.007812 C 860.730469 873.484375 861.71875 871.941406 862.667969 870.375 C 863.617188 868.808594 864.53125 867.21875 865.40625 865.609375 C 866.28125 864.003906 867.121094 862.375 867.921875 860.726562 C 868.726562 859.078125 869.488281 857.414062 870.214844 855.730469 C 870.9375 854.046875 871.625 852.351562 872.269531 850.636719 C 872.917969 848.921875 873.523438 847.195312 874.09375 845.453125 C 874.660156 843.710938 875.1875 841.957031 875.675781 840.1875 C 876.160156 838.421875 876.605469 836.644531 877.011719 834.859375 C 877.417969 833.074219 877.78125 831.277344 878.101562 829.472656 C 878.425781 827.671875 878.707031 825.859375 878.945312 824.042969 C 879.183594 822.226562 879.382812 820.40625 879.539062 818.582031 C 879.695312 816.753906 879.808594 814.925781 879.878906 813.097656 C 879.949219 811.265625 879.980469 809.433594 879.964844 807.601562 C 879.953125 805.769531 879.898438 803.9375 879.800781 802.109375 C 879.707031 800.277344 879.566406 798.453125 879.386719 796.628906 C 879.203125 794.804688 878.980469 792.988281 878.71875 791.175781 C 878.453125 789.363281 878.144531 787.554688 877.796875 785.757812 C 877.449219 783.957031 877.0625 782.167969 876.632812 780.386719 C 876.203125 778.605469 875.730469 776.835938 875.21875 775.078125 C 874.707031 773.316406 874.15625 771.570312 873.566406 769.835938 C 872.972656 768.101562 872.34375 766.382812 871.671875 764.679688 C 871 762.972656 870.292969 761.285156 869.542969 759.613281 C 868.792969 757.941406 868.007812 756.285156 867.183594 754.648438 C 866.359375 753.011719 865.496094 751.398438 864.597656 749.800781 C 863.699219 748.203125 862.765625 746.628906 861.792969 745.074219 C 860.820312 743.523438 859.816406 741.992188 858.773438 740.484375 C 857.730469 738.976562 856.65625 737.496094 855.546875 736.035156 C 854.4375 734.578125 853.292969 733.148438 852.117188 731.742188 C 850.941406 730.335938 849.734375 728.960938 848.496094 727.609375 C 847.257812 726.261719 845.988281 724.941406 844.6875 723.648438 C 843.386719 722.355469 842.058594 721.097656 840.699219 719.867188 C 839.34375 718.636719 837.957031 717.4375 836.542969 716.269531 C 835.132812 715.105469 833.691406 713.972656 832.226562 712.871094 C 830.761719 711.769531 829.273438 710.703125 827.757812 709.671875 C 826.246094 708.640625 824.707031 707.644531 823.148438 706.683594 C 821.589844 705.722656 820.007812 704.796875 818.40625 703.910156 C 816.800781 703.019531 815.179688 702.171875 813.539062 701.355469 C 811.898438 700.542969 810.238281 699.765625 808.5625 699.03125 C 806.882812 698.292969 805.191406 697.59375 803.480469 696.933594 C 801.773438 696.273438 800.046875 695.652344 798.308594 695.074219 C 796.574219 694.492188 794.820312 693.953125 793.058594 693.453125 C 791.296875 692.953125 789.523438 692.496094 787.738281 692.078125 C 785.957031 691.65625 784.164062 691.28125 782.363281 690.945312 C 780.5625 690.609375 778.753906 690.316406 776.9375 690.0625 C 775.125 689.808594 773.304688 689.597656 771.480469 689.429688 C 769.65625 689.261719 767.828125 689.132812 766 689.046875 C 764.167969 688.964844 762.335938 688.921875 760.503906 688.921875 Z M 760.503906 688.921875 " fill-opacity="1" fill-rule="nonzero"/></g><path fill="#ffffff" d="M 787.632812 763.558594 C 787.632812 764.449219 787.589844 765.335938 787.503906 766.21875 C 787.414062 767.105469 787.285156 767.980469 787.113281 768.851562 C 786.9375 769.722656 786.722656 770.585938 786.464844 771.433594 C 786.207031 772.285156 785.910156 773.121094 785.570312 773.941406 C 785.230469 774.761719 784.847656 775.566406 784.429688 776.347656 C 784.011719 777.132812 783.554688 777.894531 783.0625 778.632812 C 782.566406 779.371094 782.039062 780.082031 781.476562 780.769531 C 780.910156 781.457031 780.316406 782.113281 779.6875 782.742188 C 779.058594 783.371094 778.402344 783.96875 777.714844 784.53125 C 777.027344 785.09375 776.316406 785.625 775.578125 786.117188 C 774.839844 786.609375 774.078125 787.066406 773.292969 787.484375 C 772.507812 787.90625 771.707031 788.285156 770.886719 788.625 C 770.066406 788.964844 769.230469 789.261719 768.378906 789.519531 C 767.53125 789.777344 766.667969 789.996094 765.796875 790.167969 C 764.925781 790.339844 764.046875 790.472656 763.164062 790.558594 C 762.28125 790.644531 761.394531 790.6875 760.503906 790.6875 C 759.617188 790.6875 758.730469 790.644531 757.84375 790.558594 C 756.960938 790.472656 756.082031 790.339844 755.210938 790.167969 C 754.339844 789.996094 753.480469 789.777344 752.628906 789.519531 C 751.777344 789.261719 750.945312 788.964844 750.121094 788.625 C 749.300781 788.285156 748.5 787.90625 747.714844 787.484375 C 746.933594 787.066406 746.171875 786.609375 745.433594 786.117188 C 744.695312 785.625 743.980469 785.09375 743.292969 784.53125 C 742.605469 783.96875 741.949219 783.371094 741.320312 782.742188 C 740.691406 782.113281 740.097656 781.457031 739.535156 780.769531 C 738.96875 780.082031 738.441406 779.371094 737.949219 778.632812 C 737.453125 777.894531 736.996094 777.132812 736.578125 776.347656 C 736.160156 775.566406 735.78125 774.761719 735.441406 773.941406 C 735.101562 773.121094 734.800781 772.285156 734.542969 771.433594 C 734.285156 770.585938 734.070312 769.722656 733.898438 768.851562 C 733.722656 767.980469 733.59375 767.105469 733.507812 766.21875 C 733.417969 765.335938 733.375 764.449219 733.375 763.558594 C 733.375 762.671875 733.417969 761.785156 733.507812 760.902344 C 733.59375 760.015625 733.722656 759.140625 733.898438 758.265625 C 734.070312 757.394531 734.285156 756.535156 734.542969 755.683594 C 734.800781 754.835938 735.101562 754 735.441406 753.179688 C 735.78125 752.355469 736.160156 751.554688 736.578125 750.773438 C 736.996094 749.988281 737.453125 749.226562 737.949219 748.488281 C 738.441406 747.75 738.96875 747.035156 739.535156 746.351562 C 740.097656 745.664062 740.691406 745.003906 741.320312 744.378906 C 741.949219 743.75 742.605469 743.152344 743.292969 742.589844 C 743.980469 742.027344 744.695312 741.496094 745.433594 741.003906 C 746.171875 740.507812 746.933594 740.054688 747.714844 739.632812 C 748.5 739.214844 749.300781 738.835938 750.121094 738.496094 C 750.945312 738.15625 751.777344 737.855469 752.628906 737.597656 C 753.480469 737.339844 754.339844 737.125 755.210938 736.953125 C 756.082031 736.777344 756.960938 736.648438 757.84375 736.5625 C 758.730469 736.472656 759.617188 736.429688 760.503906 736.429688 C 761.394531 736.429688 762.28125 736.472656 763.164062 736.5625 C 764.046875 736.648438 764.925781 736.777344 765.796875 736.953125 C 766.667969 737.125 767.53125 737.339844 768.378906 737.597656 C 769.230469 737.855469 770.066406 738.15625 770.886719 738.496094 C 771.707031 738.835938 772.507812 739.214844 773.292969 739.632812 C 774.078125 740.054688 774.839844 740.507812 775.578125 741.003906 C 776.316406 741.496094 777.027344 742.027344 777.714844 742.589844 C 778.402344 743.152344 779.058594 743.75 779.6875 744.378906 C 780.316406 745.003906 780.910156 745.664062 781.476562 746.351562 C 782.039062 747.035156 782.566406 747.75 783.0625 748.488281 C 783.554688 749.226562 784.011719 749.988281 784.429688 750.773438 C 784.847656 751.554688 785.230469 752.355469 785.570312 753.179688 C 785.910156 754 786.207031 754.835938 786.464844 755.683594 C 786.722656 756.535156 786.9375 757.394531 787.113281 758.265625 C 787.285156 759.140625 787.414062 760.015625 787.503906 760.902344 C 787.589844 761.785156 787.632812 762.671875 787.632812 763.558594 Z M 787.632812 763.558594 " fill-opacity="1" fill-rule="nonzero"/></svg>